HIERARCHY
ROOT Hips
{
	OFFSET 0.00000 0.00000 0.00000
	CHANNELS 6 Xposition Yposition Zposition Zrotation Yrotation Xrotation 
	JOINT LHipJoint
	{
		OFFSET 0 0 0
		CHANNELS 3 Zrotation Yrotation Xrotation
		JOINT LeftUpLeg
		{
			OFFSET 1.54859 -1.61379 0.86856
			CHANNELS 3 Zrotation Yrotation Xrotation
			JOINT LeftLeg
			{
				OFFSET 2.25087 -6.18423 0.00000
				CHANNELS 3 Zrotation Yrotation Xrotation
				JOINT LeftFoot
				{
					OFFSET 2.40328 -6.60297 0.00000
					CHANNELS 3 Zrotation Yrotation Xrotation
					JOINT LeftToeBase
					{
						OFFSET 0.17435 -0.47901 2.02453
						CHANNELS 3 Zrotation Yrotation Xrotation
						End Site
						{
							OFFSET 0.00000 -0.00000 1.04844
						}
					}
				}
			}
		}
	}
	JOINT RHipJoint
	{
		OFFSET 0 0 0
		CHANNELS 3 Zrotation Yrotation Xrotation
		JOINT RightUpLeg
		{
			OFFSET -1.54669 -1.61379 0.86856
			CHANNELS 3 Zrotation Yrotation Xrotation
			JOINT RightLeg
			{
				OFFSET -2.28132 -6.26789 0.00000
				CHANNELS 3 Zrotation Yrotation Xrotation
				JOINT RightFoot
				{
					OFFSET -2.51636 -6.91365 0.00000
					CHANNELS 3 Zrotation Yrotation Xrotation
					JOINT RightToeBase
					{
						OFFSET -0.15124 -0.41552 2.21090
						CHANNELS 3 Zrotation Yrotation Xrotation
						End Site
						{
							OFFSET -0.00000 -0.00000 1.13399
						}
					}
				}
			}
		}
	}
	JOINT LowerBack
	{
		OFFSET 0 0 0
		CHANNELS 3 Zrotation Yrotation Xrotation
		JOINT Spine
		{
			OFFSET -0.04287 2.26161 -0.25690
			CHANNELS 3 Zrotation Yrotation Xrotation
			JOINT Spine1
			{
				OFFSET 0.02248 2.28395 -0.10140
				CHANNELS 3 Zrotation Yrotation Xrotation
				JOINT Neck
				{
					OFFSET 0 0 0
					CHANNELS 3 Zrotation Yrotation Xrotation
					JOINT Neck1
					{
						OFFSET -0.11644 1.38496 0.11345
						CHANNELS 3 Zrotation Yrotation Xrotation
						JOINT Head
						{
							OFFSET 0.29383 1.36600 0.06642
							CHANNELS 3 Zrotation Yrotation Xrotation
							End Site
							{
								OFFSET 0.11075 1.41395 -0.00294
							}
						}
					}
				}
				JOINT LeftShoulder
				{
					OFFSET 0 0 0
					CHANNELS 3 Zrotation Yrotation Xrotation
					JOINT LeftArm
					{
						OFFSET 3.51628 0.59542 -0.30346
						CHANNELS 3 Zrotation Yrotation Xrotation
						JOINT LeftForeArm
						{
							OFFSET 4.76405 -0.00000 0.00000
							CHANNELS 3 Zrotation Yrotation Xrotation
							JOINT LeftHand
							{
								OFFSET 3.13759 -0.00000 -0.00000
								CHANNELS 3 Zrotation Yrotation Xrotation
								JOINT LeftFingerBase
								{
									OFFSET 0 0 0
									CHANNELS 3 Zrotation Yrotation Xrotation
									JOINT LeftHandIndex1
									{
										OFFSET 0.73226 -0.00000 -0.00000
										CHANNELS 3 Zrotation Yrotation Xrotation
										End Site
										{
											OFFSET 0.59037 -0.00000 -0.00000
										}
									}
								}
								JOINT LThumb
								{
									OFFSET 0 0 0
									CHANNELS 3 Zrotation Yrotation Xrotation
									End Site
									{
										OFFSET 0.59938 -0.00000 0.59938
									}
								}
							}
						}
					}
				}
				JOINT RightShoulder
				{
					OFFSET 0 0 0
					CHANNELS 3 Zrotation Yrotation Xrotation
					JOINT RightArm
					{
						OFFSET -3.30990 0.84213 -0.36430
						CHANNELS 3 Zrotation Yrotation Xrotation
						JOINT RightForeArm
						{
							OFFSET -5.10161 -0.00000 -0.00000
							CHANNELS 3 Zrotation Yrotation Xrotation
							JOINT RightHand
							{
								OFFSET -3.23267 -0.00000 -0.00000
								CHANNELS 3 Zrotation Yrotation Xrotation
								JOINT RightFingerBase
								{
									OFFSET 0 0 0
									CHANNELS 3 Zrotation Yrotation Xrotation
									JOINT RightHandIndex1
									{
										OFFSET -0.70200 -0.00000 -0.00000
										CHANNELS 3 Zrotation Yrotation Xrotation
										End Site
										{
											OFFSET -0.56597 -0.00000 -0.00000
										}
									}
								}
								JOINT RThumb
								{
									OFFSET 0 0 0
									CHANNELS 3 Zrotation Yrotation Xrotation
									End Site
									{
										OFFSET -0.57461 -0.00000 0.57461
									}
								}
							}
						}
					}
				}
			}
		}
	}
}
MOTION
Frames: 13
Frame Time: .0083333
-37.6566 16.1059 0.9504 0 0 0 0 0 0 -21 0 0 0 0 0 0 0 0 0 0 0 0 0 0 21 0 0 0 0 0 0 0 0 0 0 0 0 0 0 0 0 0 0 0 0 0 0 -16 0 0 21 0 0 11 0 0 0 -8 0 0 0 0 0 0 0 0 0 0 0 0 0 0 0 0 0 0 0 0 8 0 0 0 0 0 0 0 0 0 0 0 0 0 0 0 0 0
-37.6566 16.1059 0.9504 0.2056 75.5653 3.4285 0.0000 0.0000 0.0000 -10.7510 -2.7039 -19.2135 6.1812 14.6017 45.7048 -0.0060 3.9347 -5.3525 2.4178 -9.6868 -27.9683 0.0000 0.0000 0.0000 14.9934 3.3457 -44.3675 -21.6857 -19.9317 94.9341 -0.7577 -1.1614 -16.9036 -2.2849 9.4359 -27.1686 -8.2519 3.1710 19.1749 1.0843 3.4179 10.1492 5.1683 1.6236 -0.1846 -12.4957 -4.2000 0.6844 19.0946 -2.0389 -25.2371 8.8175 -1.1019 -7.1741 0.0000 -0.0000 0.0000 -73.5263 1.7526 43.9355 42.4856 -49.4755 -20.3090 -0.0000 0.0000 -7.3974 44.2254 34.9526 29.1446 -7.1250 0.0000 -0.0000 20.2237 73.4254 13.7606 0.0000 -0.0000 0.0000 73.2849 13.6527 -7.8650 -49.2753 52.6990 -25.5966 0.0000 -0.0000 -7.0005 -29.1700 34.1019 -17.3781 7.1250 -0.0000 -0.0000 1.9037 7.7932 2.1453
-37.4353 16.2160 1.0605 -2.1337 74.7583 0.8253 0.0000 0.0000 0.0000 -10.3476 -5.1162 -17.5884 6.3292 14.7400 46.2892 -0.1658 7.5631 -5.2405 1.5086 -7.7573 -21.9792 0.0000 0.0000 0.0000 15.4117 4.3490 -44.7786 -21.6846 -19.9318 94.9309 -0.8063 -0.3018 -17.0825 -1.6454 8.0847 -22.9717 -7.8932 2.9939 18.5879 0.8547 3.3316 10.5790 4.7732 1.5654 0.6191 -12.1030 -3.9252 0.3328 19.2257 -1.5078 -25.3042 8.7744 -0.8647 -7.2300 0.0000 -0.0000 0.0000 -71.8091 2.2563 43.3262 43.7386 -50.1354 -21.2661 -0.0000 0.0000 -9.8044 43.3410 30.7012 25.7256 -7.1250 0.0000 -0.0000 18.0372 68.4129 10.2618 0.0000 -0.0000 0.0000 73.9309 13.9178 -7.9405 -50.2921 53.1126 -26.4076 0.0000 -0.0000 -8.8253 -27.5259 33.5255 -16.0574 7.1250 -0.0000 -0.0000 2.6842 6.7474 2.9841
-37.2037 16.3624 1.1744 -3.3212 74.0278 -0.5160 0.0000 0.0000 0.0000 -10.0304 -4.9335 -16.5305 6.2609 14.6765 46.0199 -0.2649 9.1019 -4.0068 3.8485 -11.9561 -35.5768 0.0000 0.0000 0.0000 15.5611 5.1590 -45.1300 -21.6068 -19.9380 94.7028 -0.8379 0.4194 -17.1642 -1.2388 7.0577 -19.8864 -6.4743 2.5065 16.6492 -0.4727 3.1816 11.7625 2.7104 1.5270 3.0391 -10.7066 -3.7587 0.4020 19.9377 -0.7486 -26.4028 8.8374 -0.6535 -7.7466 -0.0000 0.0000 0.0000 -68.3615 1.5562 42.6101 44.9674 -50.7525 -22.2135 -0.0000 0.0000 -13.1525 41.3544 29.7531 23.5964 -7.1250 0.0000 -0.0000 14.6878 66.7201 7.7574 -0.0000 0.0000 0.0000 76.3429 15.2446 -8.2979 -51.0403 53.4065 -27.0072 0.0000 -0.0000 -9.3893 -26.9425 32.1961 -15.1529 7.1250 -0.0000 -0.0000 2.7551 5.2173 2.9975
-36.9644 16.4982 1.2658 -3.5127 74.0894 -0.6558 0.0000 0.0000 0.0000 -10.1981 -5.3787 -15.6954 6.2475 14.6640 45.9673 -0.3418 10.3171 -3.1332 1.9916 -8.8486 -25.3227 0.0000 0.0000 0.0000 15.0449 5.0546 -46.0420 -21.6136 -19.9375 94.7225 -0.8865 2.3798 -17.1480 -0.5244 4.6408 -12.8869 -8.5332 2.4800 18.0885 1.2285 2.5334 10.0236 5.6927 1.1312 0.3546 -12.9683 -2.9464 1.2877 19.1409 -0.4273 -24.7410 8.8706 -0.3257 -7.4164 0.0000 0.0000 0.0000 -71.0014 6.0647 42.2504 46.3909 -51.4320 -23.3213 -0.0000 0.0000 -15.4207 39.7700 30.2001 22.7169 -7.1250 0.0000 -0.0000 12.1655 66.7373 6.4117 0.0000 0.0000 0.0000 73.3262 11.8277 -6.8631 -51.4151 53.5505 -27.3084 0.0000 -0.0000 -10.0836 -26.3902 30.5628 -14.1605 7.1250 -0.0000 -0.0000 2.7777 3.3789 2.9400
-36.7313 16.6091 1.3754 -4.1737 73.2912 -1.5408 0.0000 0.0000 0.0000 -10.1705 -4.7473 -14.7265 6.2391 14.6561 45.9339 -0.4072 11.3039 -2.7330 0.8096 -5.7421 -16.0380 0.0000 0.0000 0.0000 14.9716 5.7820 -46.2307 -21.4805 -19.9474 94.3325 -0.8839 3.4081 -16.9451 -0.2569 3.2608 -9.0057 -8.3987 2.5732 17.6345 1.0236 2.7233 10.2008 5.3781 1.2155 0.7610 -12.7003 -2.8491 0.8560 19.2048 -0.2260 -24.4643 8.8070 -0.2341 -7.2836 -0.0000 0.0000 0.0000 -69.7011 6.8076 42.3253 47.3886 -51.8864 -24.1038 -0.0000 0.0000 -18.5683 38.3659 30.3376 21.7937 -7.1250 0.0000 -0.0000 9.9960 66.4625 5.1946 -0.0000 0.0000 0.0000 73.8947 11.3838 -7.8030 -51.4270 53.5551 -27.3179 0.0000 -0.0000 -10.0868 -25.4632 29.3506 -13.1379 7.1250 -0.0000 -0.0000 3.1119 1.8946 3.2177
-36.5001 16.6900 1.4858 -6.1984 72.4613 -3.7320 0.0000 0.0000 0.0000 -9.5845 -3.9139 -14.0918 6.2526 14.6688 45.9874 -0.4439 11.8645 -2.3366 0.4423 -4.2671 -11.8293 0.0000 0.0000 0.0000 15.6131 6.4365 -46.3525 -21.2762 -19.9609 93.7338 -0.8821 2.7389 -17.0350 -0.4897 4.4870 -12.4510 -7.5128 2.6112 17.2885 0.6579 2.9328 10.3479 4.4636 1.3523 1.0993 -12.0142 -2.8399 0.2866 19.3029 -0.0859 -24.2030 8.6772 -0.1993 -7.1221 0.0000 0.0000 0.0000 -68.0255 7.3524 42.5249 47.9549 -52.1366 -24.5502 -0.0000 0.0000 -21.1852 37.1162 31.2357 21.4258 -7.1250 0.0000 -0.0000 7.9017 67.0773 4.2109 0.0000 0.0000 0.0000 75.0389 10.8258 -8.8719 -51.5889 53.6166 -27.4482 0.0000 -0.0000 -11.0855 -23.9980 28.4508 -11.9743 7.1250 -0.0000 -0.0000 3.8304 0.6323 3.8811
-36.2561 16.7711 1.5789 -8.2005 72.7287 -5.5342 0.0000 0.0000 0.0000 -9.0642 -4.2940 -13.9348 6.2651 14.6804 46.0367 -0.4419 11.9331 -1.8073 0.6540 -5.1727 -14.4019 0.0000 0.0000 0.0000 15.9242 5.9389 -46.9836 -21.0670 -19.9727 93.1210 -0.8799 2.5245 -17.0534 -0.5790 4.8723 -13.5448 -6.3703 2.0995 16.4799 0.4434 2.4862 10.4806 3.6960 1.1619 1.7436 -11.6573 -2.7507 -0.2486 19.3037 0.0997 -23.9417 8.5752 -0.1094 -6.9751 0.0000 -0.0000 0.0000 -67.0426 7.8363 42.6331 47.7245 -52.0355 -24.3684 -0.0000 0.0000 -22.1093 36.8082 33.8158 22.6096 -7.1250 0.0000 -0.0000 6.5133 69.7968 3.8689 0.0000 -0.0000 0.0000 75.8431 10.4621 -9.6871 -51.6916 53.6554 -27.5309 0.0000 -0.0000 -12.7140 -22.3479 27.6743 -10.8098 7.1250 -0.0000 -0.0000 4.6977 -0.5128 4.6713
-36.0167 16.8680 1.6941 -8.6528 72.1091 -6.3796 0.0000 0.0000 0.0000 -9.0191 -3.9669 -12.8961 6.2046 14.6237 45.7975 -0.4037 11.3972 -1.8177 0.8806 -5.9824 -16.7334 0.0000 0.0000 0.0000 15.9165 6.2413 -46.7462 -20.8498 -19.9827 92.4853 -0.8574 2.6607 -16.8001 -0.4959 4.5149 -12.5298 -6.6465 2.1109 16.6108 0.6399 2.4303 10.2883 4.0601 1.1207 1.4605 -11.9355 -2.4820 -0.4437 19.0860 0.3116 -23.2362 8.4954 0.0327 -6.7536 0.0000 0.0000 0.0000 -67.2054 9.0354 41.9901 47.6721 -52.0124 -24.3271 -0.0000 0.0000 -24.4484 37.6330 28.5534 20.2304 -7.1250 0.0000 -0.0000 9.2496 64.2464 4.3298 0.0000 0.0000 0.0000 75.9311 9.3858 -10.0320 -51.9769 53.7623 -27.7609 0.0000 -0.0000 -15.1321 -20.8634 26.7288 -9.7271 7.1250 -0.0000 -0.0000 5.4688 -1.7717 5.3216
-35.7758 16.9372 1.7989 -9.1822 72.2547 -6.8232 0.0000 0.0000 0.0000 -9.1175 -4.2566 -12.3369 6.0741 14.4997 45.2783 -0.3016 9.9039 -1.4074 0.9515 -6.2119 -17.4005 0.0000 0.0000 0.0000 15.6842 5.8846 -47.2242 -20.6655 -19.9894 91.9461 -0.8297 2.7124 -16.5076 -0.5469 4.7379 -13.1625 -6.4859 1.7921 16.0117 0.6774 2.0628 10.2270 4.0815 0.9288 1.7481 -12.1659 -2.2438 -0.4243 19.0649 0.6049 -23.0921 8.5149 0.1929 -6.7629 0.0000 0.0000 0.0000 -67.2357 9.9763 42.7042 46.4053 -51.4387 -23.3326 -0.0000 0.0000 -23.9855 35.2914 30.5633 19.7947 -7.1250 0.0000 -0.0000 5.4469 65.7886 2.7376 0.0000 0.0000 0.0000 76.3494 8.5283 -10.5660 -52.4437 53.9348 -28.1378 0.0000 -0.0000 -18.1582 -19.2935 25.6612 -8.6202 7.1250 -0.0000 -0.0000 6.3042 -3.1438 5.9859
-35.5371 16.9676 1.8990 -10.3752 72.6902 -7.8737 0.0000 0.0000 0.0000 -9.0078 -4.3533 -11.8797 5.8731 14.3042 44.4702 -0.1737 7.6685 -0.5390 1.1390 -6.7775 -19.0577 0.0000 0.0000 0.0000 15.5922 5.2656 -47.8278 -20.5008 -19.9940 91.4644 -0.8253 2.6468 -16.4747 -0.6758 5.2567 -14.6423 -5.5485 1.3188 15.2311 0.3056 1.6106 10.3121 3.2431 0.7394 2.3118 -11.9183 -2.0542 -0.2438 19.3946 1.0192 -23.4242 8.5991 0.3503 -6.9725 0.0000 -0.0000 0.0000 -66.6113 10.2905 42.8152 45.2482 -50.8895 -22.4312 -0.0000 0.0000 -25.1979 34.7638 31.6008 19.9862 -7.1250 0.0000 -0.0000 4.3124 66.7619 2.2628 0.0000 -0.0000 0.0000 77.6899 7.7449 -11.2639 -52.9597 54.1216 -28.5555 0.0000 -0.0000 -20.9455 -18.0448 24.7063 -7.7541 7.1250 -0.0000 -0.0000 6.9805 -4.3221 6.4838
-35.3025 16.9978 2.0164 -10.5179 72.4769 -8.2383 0.0000 0.0000 0.0000 -9.0857 -3.7050 -11.0895 5.6307 14.0607 43.4809 -0.0904 5.6500 -0.0497 1.1994 -6.9488 -19.5638 0.0000 0.0000 0.0000 15.3597 5.2889 -47.8378 -20.3010 -19.9978 90.8800 -0.8341 2.5392 -16.5852 -0.8342 5.8266 -16.2823 -5.9091 1.3132 15.5344 0.4930 1.4943 9.8619 3.6472 0.6729 1.6708 -12.2281 -1.7843 -0.2929 19.3983 1.2770 -22.7887 8.6128 0.4973 -6.8061 0.0000 0.0000 0.0000 -67.3926 11.4146 42.5004 44.3116 -50.4267 -21.7068 -0.0000 0.0000 -24.9947 33.8629 33.3938 20.2707 -7.1250 0.0000 -0.0000 2.1524 68.4140 1.2098 0.0000 0.0000 0.0000 78.0430 6.0458 -11.5646 -53.2174 54.2135 -28.7644 0.0000 -0.0000 -23.4719 -17.2517 23.8584 -7.1592 7.1250 -0.0000 -0.0000 7.4031 -5.3061 6.7445
-35.0664 17.0312 2.1332 -9.8597 72.5720 -7.8652 0.0000 0.0000 0.0000 -9.5003 -3.4394 -10.3354 5.3585 13.7765 42.3496 -0.0442 4.1463 0.4272 1.0663 -6.5649 -18.4325 0.0000 0.0000 0.0000 14.7584 5.0210 -47.7280 -20.0612 -19.9999 90.1790 -0.8357 2.7191 -16.5684 -0.9051 6.0626 -16.9662 -6.5537 1.2096 15.5993 0.6905 1.2528 9.6429 4.2515 0.5242 1.4245 -12.4772 -1.5807 -0.7007 19.2269 1.4229 -22.0040 8.5423 0.6138 -6.5111 0.0000 -0.0000 0.0000 -68.5964 12.2665 41.9843 43.1148 -49.8108 -20.7884 -0.0000 0.0000 -24.4243 33.0696 33.8127 19.9177 -7.1250 0.0000 -0.0000 0.7392 68.6114 0.4187 0.0000 -0.0000 0.0000 78.3297 4.8547 -11.9215 -53.3143 54.2478 -28.8430 0.0000 -0.0000 -26.1535 -16.4389 22.8089 -6.5251 7.1250 -0.0000 -0.0000 7.8381 -6.4885 6.9693
